<svg width="26" height="32" viewBox="0 0 26 32" fill="none" xmlns="http://www.w3.org/2000/svg">
<path id="&#195;&#141;cone" d="M0.400024 16C0.400024 16.4243 0.568596 16.8313 0.868654 17.1314C1.16871 17.4314 1.57568 17.6 2.00002 17.6H14.144L10.464 21.264C10.3141 21.4127 10.195 21.5897 10.1138 21.7847C10.0326 21.9797 9.99075 22.1888 9.99075 22.4C9.99075 22.6112 10.0326 22.8203 10.1138 23.0153C10.195 23.2103 10.3141 23.3873 10.464 23.536C10.6128 23.686 10.7897 23.805 10.9847 23.8862C11.1797 23.9675 11.3888 24.0093 11.6 24.0093C11.8112 24.0093 12.0204 23.9675 12.2153 23.8862C12.4103 23.805 12.5873 23.686 12.736 23.536L19.136 17.136C19.2817 16.9838 19.3959 16.8044 19.472 16.608C19.6321 16.2185 19.6321 15.7815 19.472 15.392C19.3959 15.1956 19.2817 15.0162 19.136 14.864L12.736 8.464C12.5868 8.31482 12.4097 8.19648 12.2148 8.11574C12.0199 8.03501 11.811 7.99345 11.6 7.99345C11.389 7.99345 11.1801 8.03501 10.9852 8.11574C10.7903 8.19648 10.6132 8.31482 10.464 8.464C10.3148 8.61318 10.1965 8.79029 10.1158 8.9852C10.035 9.18012 9.99348 9.38903 9.99348 9.6C9.99348 9.81098 10.035 10.0199 10.1158 10.2148C10.1965 10.4097 10.3148 10.5868 10.464 10.736L14.144 14.4H2.00002C1.57568 14.4 1.16871 14.5686 0.868654 14.8686C0.568596 15.1687 0.400024 15.5757 0.400024 16ZM21.2 0H5.20002C3.92699 0 2.70609 0.505713 1.80591 1.40589C0.905737 2.30606 0.400024 3.52696 0.400024 4.8V9.6C0.400024 10.0243 0.568596 10.4313 0.868654 10.7314C1.16871 11.0314 1.57568 11.2 2.00002 11.2C2.42437 11.2 2.83134 11.0314 3.1314 10.7314C3.43145 10.4313 3.60002 10.0243 3.60002 9.6V4.8C3.60002 4.37565 3.7686 3.96869 4.06865 3.66863C4.36871 3.36857 4.77568 3.2 5.20002 3.2H21.2C21.6244 3.2 22.0313 3.36857 22.3314 3.66863C22.6315 3.96869 22.8 4.37565 22.8 4.8V27.2C22.8 27.6243 22.6315 28.0313 22.3314 28.3314C22.0313 28.6314 21.6244 28.8 21.2 28.8H5.20002C4.77568 28.8 4.36871 28.6314 4.06865 28.3314C3.7686 28.0313 3.60002 27.6243 3.60002 27.2V22.4C3.60002 21.9757 3.43145 21.5687 3.1314 21.2686C2.83134 20.9686 2.42437 20.8 2.00002 20.8C1.57568 20.8 1.16871 20.9686 0.868654 21.2686C0.568596 21.5687 0.400024 21.9757 0.400024 22.4V27.2C0.400024 28.473 0.905737 29.6939 1.80591 30.5941C2.70609 31.4943 3.92699 32 5.20002 32H21.2C22.4731 32 23.694 31.4943 24.5941 30.5941C25.4943 29.6939 26 28.473 26 27.2V4.8C26 3.52696 25.4943 2.30606 24.5941 1.40589C23.694 0.505713 22.4731 0 21.2 0Z" fill="#7394C5"/>
</svg>
