<svg width="62" height="62" viewBox="0 0 62 62" fill="none" xmlns="http://www.w3.org/2000/svg">
<path d="M-1.95004e-06 31C-1.95004e-06 13.8792 13.8792 0 31 0C48.1208 0 62 13.8792 62 31C62 48.1208 48.1208 62 31 62C13.8792 62 -1.95004e-06 48.1208 -1.95004e-06 31Z" fill="#0088FF"/>
<path d="M9 31C9 18.8497 18.8497 9 31 9C43.1503 9 53 18.8497 53 31C53 43.1503 43.1503 53 31 53C18.8497 53 9 43.1503 9 31Z" fill="#88AADD"/>
<path d="M21 31C21 25.4772 25.4772 21 31 21C36.5228 21 41 25.4772 41 31C41 36.5228 36.5228 41 31 41C25.4772 41 21 36.5228 21 31Z" fill="#DDEEFF"/>
</svg>
